<mxfile host="app.diagrams.net" modified="2024-02-06T17:21:53.719Z" agent="Mozilla/5.0 (Macintosh; Intel Mac OS X 10.15; rv:122.0) Gecko/20100101 Firefox/122.0" etag="NyHx1CohWPAspixm9uE3" version="23.1.1" type="github">
  <diagram name="Page-1" id="yGyFkePlUMSOtw3ik4Zv">
    <mxGraphModel dx="1197" dy="1059" grid="1" gridSize="10" guides="1" tooltips="1" connect="1" arrows="1" fold="1" page="1" pageScale="1" pageWidth="850" pageHeight="1100" math="0" shadow="0">
      <root>
        <mxCell id="0" />
        <mxCell id="1" parent="0" />
        <mxCell id="7SVlReUXrSAUbX2SOmzO-15" style="edgeStyle=orthogonalEdgeStyle;rounded=0;orthogonalLoop=1;jettySize=auto;html=1;entryX=0;entryY=0.75;entryDx=0;entryDy=0;" edge="1" parent="1" source="5Cbh1VTCBoVTc0HgQQdx-1" target="5Cbh1VTCBoVTc0HgQQdx-8">
          <mxGeometry relative="1" as="geometry">
            <Array as="points">
              <mxPoint x="653" y="40" />
            </Array>
          </mxGeometry>
        </mxCell>
        <mxCell id="7SVlReUXrSAUbX2SOmzO-38" style="edgeStyle=orthogonalEdgeStyle;rounded=0;orthogonalLoop=1;jettySize=auto;html=1;" edge="1" parent="1" source="7SVlReUXrSAUbX2SOmzO-40">
          <mxGeometry relative="1" as="geometry">
            <mxPoint x="499.9999999999998" y="190" as="targetPoint" />
            <Array as="points">
              <mxPoint x="460" y="190" />
            </Array>
          </mxGeometry>
        </mxCell>
        <mxCell id="7SVlReUXrSAUbX2SOmzO-65" style="edgeStyle=orthogonalEdgeStyle;rounded=0;orthogonalLoop=1;jettySize=auto;html=1;" edge="1" parent="1" source="5Cbh1VTCBoVTc0HgQQdx-1">
          <mxGeometry relative="1" as="geometry">
            <mxPoint x="520" y="280" as="targetPoint" />
            <Array as="points">
              <mxPoint x="520" y="110" />
              <mxPoint x="520" y="110" />
            </Array>
          </mxGeometry>
        </mxCell>
        <mxCell id="5Cbh1VTCBoVTc0HgQQdx-1" value="Machine" style="rounded=0;whiteSpace=wrap;html=1;" parent="1" vertex="1">
          <mxGeometry x="440" y="10" width="120" height="60" as="geometry" />
        </mxCell>
        <mxCell id="7SVlReUXrSAUbX2SOmzO-7" value="" style="edgeStyle=orthogonalEdgeStyle;rounded=0;orthogonalLoop=1;jettySize=auto;html=1;" edge="1" parent="1" source="5Cbh1VTCBoVTc0HgQQdx-2" target="5Cbh1VTCBoVTc0HgQQdx-1">
          <mxGeometry relative="1" as="geometry" />
        </mxCell>
        <mxCell id="5Cbh1VTCBoVTc0HgQQdx-2" value="Credit Card" style="rounded=0;whiteSpace=wrap;html=1;" parent="1" vertex="1">
          <mxGeometry x="270" y="10" width="120" height="60" as="geometry" />
        </mxCell>
        <mxCell id="7SVlReUXrSAUbX2SOmzO-10" style="edgeStyle=orthogonalEdgeStyle;rounded=0;orthogonalLoop=1;jettySize=auto;html=1;entryX=0;entryY=0.5;entryDx=0;entryDy=0;" edge="1" parent="1" source="5Cbh1VTCBoVTc0HgQQdx-8" target="5Cbh1VTCBoVTc0HgQQdx-37">
          <mxGeometry relative="1" as="geometry">
            <Array as="points">
              <mxPoint x="772.5" y="210" />
            </Array>
          </mxGeometry>
        </mxCell>
        <mxCell id="7SVlReUXrSAUbX2SOmzO-14" style="edgeStyle=orthogonalEdgeStyle;rounded=0;orthogonalLoop=1;jettySize=auto;html=1;entryX=0.75;entryY=0;entryDx=0;entryDy=0;" edge="1" parent="1" source="5Cbh1VTCBoVTc0HgQQdx-8" target="5Cbh1VTCBoVTc0HgQQdx-23">
          <mxGeometry relative="1" as="geometry">
            <Array as="points">
              <mxPoint x="682.5" y="252" />
            </Array>
          </mxGeometry>
        </mxCell>
        <mxCell id="7SVlReUXrSAUbX2SOmzO-18" style="edgeStyle=orthogonalEdgeStyle;rounded=0;orthogonalLoop=1;jettySize=auto;html=1;" edge="1" parent="1" source="5Cbh1VTCBoVTc0HgQQdx-8">
          <mxGeometry relative="1" as="geometry">
            <mxPoint x="762.5" y="332" as="targetPoint" />
          </mxGeometry>
        </mxCell>
        <mxCell id="5Cbh1VTCBoVTc0HgQQdx-8" value="Operations" style="rounded=0;whiteSpace=wrap;html=1;" parent="1" vertex="1">
          <mxGeometry x="652.5" width="120" height="60" as="geometry" />
        </mxCell>
        <mxCell id="5Cbh1VTCBoVTc0HgQQdx-11" value="1" style="text;html=1;align=center;verticalAlign=middle;resizable=0;points=[];autosize=1;strokeColor=none;fillColor=none;" parent="1" vertex="1">
          <mxGeometry x="550" y="15" width="30" height="30" as="geometry" />
        </mxCell>
        <mxCell id="5Cbh1VTCBoVTc0HgQQdx-12" value="*" style="text;html=1;align=center;verticalAlign=middle;resizable=0;points=[];autosize=1;strokeColor=none;fillColor=none;" parent="1" vertex="1">
          <mxGeometry x="622.5" y="15" width="30" height="30" as="geometry" />
        </mxCell>
        <mxCell id="5Cbh1VTCBoVTc0HgQQdx-23" value="Balance" style="swimlane;fontStyle=0;childLayout=stackLayout;horizontal=1;startSize=20;horizontalStack=0;resizeParent=1;resizeParentMax=0;resizeLast=0;collapsible=1;marginBottom=0;whiteSpace=wrap;html=1;" parent="1" vertex="1">
          <mxGeometry x="622.5" y="252" width="120" height="60" as="geometry" />
        </mxCell>
        <mxCell id="5Cbh1VTCBoVTc0HgQQdx-24" value="Enough" style="text;strokeColor=none;fillColor=none;align=left;verticalAlign=middle;spacingLeft=4;spacingRight=4;overflow=hidden;points=[[0,0.5],[1,0.5]];portConstraint=eastwest;rotatable=0;whiteSpace=wrap;html=1;" parent="5Cbh1VTCBoVTc0HgQQdx-23" vertex="1">
          <mxGeometry y="20" width="120" height="20" as="geometry" />
        </mxCell>
        <mxCell id="5Cbh1VTCBoVTc0HgQQdx-25" value="Not Enough" style="text;strokeColor=none;fillColor=none;align=left;verticalAlign=middle;spacingLeft=4;spacingRight=4;overflow=hidden;points=[[0,0.5],[1,0.5]];portConstraint=eastwest;rotatable=0;whiteSpace=wrap;html=1;" parent="5Cbh1VTCBoVTc0HgQQdx-23" vertex="1">
          <mxGeometry y="40" width="120" height="20" as="geometry" />
        </mxCell>
        <mxCell id="5Cbh1VTCBoVTc0HgQQdx-15" value="Verifies" style="text;html=1;align=center;verticalAlign=middle;resizable=0;points=[];autosize=1;strokeColor=none;fillColor=none;" parent="1" vertex="1">
          <mxGeometry x="592.5" y="92" width="60" height="30" as="geometry" />
        </mxCell>
        <mxCell id="5Cbh1VTCBoVTc0HgQQdx-28" value="Card State" style="swimlane;fontStyle=0;childLayout=stackLayout;horizontal=1;startSize=20;horizontalStack=0;resizeParent=1;resizeParentMax=0;resizeLast=0;collapsible=1;marginBottom=0;whiteSpace=wrap;html=1;" parent="1" vertex="1">
          <mxGeometry x="587.5" y="122" width="90" height="90" as="geometry" />
        </mxCell>
        <mxCell id="5Cbh1VTCBoVTc0HgQQdx-10" value="&lt;div&gt;perfoms&lt;/div&gt;" style="text;html=1;align=center;verticalAlign=middle;resizable=0;points=[];autosize=1;strokeColor=none;fillColor=none;" parent="5Cbh1VTCBoVTc0HgQQdx-28" vertex="1">
          <mxGeometry y="20" width="90" height="30" as="geometry" />
        </mxCell>
        <mxCell id="5Cbh1VTCBoVTc0HgQQdx-29" value="Damaged" style="text;strokeColor=none;fillColor=none;align=left;verticalAlign=middle;spacingLeft=4;spacingRight=4;overflow=hidden;points=[[0,0.5],[1,0.5]];portConstraint=eastwest;rotatable=0;whiteSpace=wrap;html=1;" parent="5Cbh1VTCBoVTc0HgQQdx-28" vertex="1">
          <mxGeometry y="50" width="90" height="20" as="geometry" />
        </mxCell>
        <mxCell id="5Cbh1VTCBoVTc0HgQQdx-30" value="Intact" style="text;strokeColor=none;fillColor=none;align=left;verticalAlign=middle;spacingLeft=4;spacingRight=4;overflow=hidden;points=[[0,0.5],[1,0.5]];portConstraint=eastwest;rotatable=0;whiteSpace=wrap;html=1;" parent="5Cbh1VTCBoVTc0HgQQdx-28" vertex="1">
          <mxGeometry y="70" width="90" height="20" as="geometry" />
        </mxCell>
        <mxCell id="5Cbh1VTCBoVTc0HgQQdx-37" value="Payements" style="rounded=0;whiteSpace=wrap;html=1;" parent="1" vertex="1">
          <mxGeometry x="822.5" y="190" width="120" height="40" as="geometry" />
        </mxCell>
        <mxCell id="5Cbh1VTCBoVTc0HgQQdx-39" value="charges" style="text;html=1;align=center;verticalAlign=middle;resizable=0;points=[];autosize=1;strokeColor=none;fillColor=none;" parent="1" vertex="1">
          <mxGeometry x="772.5" y="182" width="70" height="30" as="geometry" />
        </mxCell>
        <mxCell id="r4hVCq29wGwZ0H3uPOvn-5" value="Theft" style="swimlane;fontStyle=0;childLayout=stackLayout;horizontal=1;startSize=20;horizontalStack=0;resizeParent=1;resizeParentMax=0;resizeLast=0;collapsible=1;marginBottom=0;whiteSpace=wrap;html=1;" parent="1" vertex="1">
          <mxGeometry x="692.5" y="322" width="140" height="60" as="geometry" />
        </mxCell>
        <mxCell id="r4hVCq29wGwZ0H3uPOvn-6" value="Yes" style="text;strokeColor=none;fillColor=none;align=left;verticalAlign=middle;spacingLeft=4;spacingRight=4;overflow=hidden;points=[[0,0.5],[1,0.5]];portConstraint=eastwest;rotatable=0;whiteSpace=wrap;html=1;" parent="r4hVCq29wGwZ0H3uPOvn-5" vertex="1">
          <mxGeometry y="20" width="140" height="20" as="geometry" />
        </mxCell>
        <mxCell id="r4hVCq29wGwZ0H3uPOvn-7" value="No" style="text;strokeColor=none;fillColor=none;align=left;verticalAlign=middle;spacingLeft=4;spacingRight=4;overflow=hidden;points=[[0,0.5],[1,0.5]];portConstraint=eastwest;rotatable=0;whiteSpace=wrap;html=1;" parent="r4hVCq29wGwZ0H3uPOvn-5" vertex="1">
          <mxGeometry y="40" width="140" height="20" as="geometry" />
        </mxCell>
        <mxCell id="r4hVCq29wGwZ0H3uPOvn-10" value="&lt;div&gt;processes&lt;/div&gt;&lt;div&gt;&lt;br&gt;&lt;/div&gt;" style="text;html=1;align=center;verticalAlign=middle;resizable=0;points=[];autosize=1;strokeColor=none;fillColor=none;" parent="1" vertex="1">
          <mxGeometry x="560" y="15" width="80" height="40" as="geometry" />
        </mxCell>
        <mxCell id="r4hVCq29wGwZ0H3uPOvn-14" value="Payement Approval" style="swimlane;fontStyle=0;childLayout=stackLayout;horizontal=1;startSize=20;horizontalStack=0;resizeParent=1;resizeParentMax=0;resizeLast=0;collapsible=1;marginBottom=0;whiteSpace=wrap;html=1;" parent="1" vertex="1">
          <mxGeometry x="812.5" y="102" width="140" height="60" as="geometry" />
        </mxCell>
        <mxCell id="r4hVCq29wGwZ0H3uPOvn-15" value="Yes" style="text;strokeColor=none;fillColor=none;align=left;verticalAlign=middle;spacingLeft=4;spacingRight=4;overflow=hidden;points=[[0,0.5],[1,0.5]];portConstraint=eastwest;rotatable=0;whiteSpace=wrap;html=1;" parent="r4hVCq29wGwZ0H3uPOvn-14" vertex="1">
          <mxGeometry y="20" width="140" height="20" as="geometry" />
        </mxCell>
        <mxCell id="r4hVCq29wGwZ0H3uPOvn-16" value="No" style="text;strokeColor=none;fillColor=none;align=left;verticalAlign=middle;spacingLeft=4;spacingRight=4;overflow=hidden;points=[[0,0.5],[1,0.5]];portConstraint=eastwest;rotatable=0;whiteSpace=wrap;html=1;" parent="r4hVCq29wGwZ0H3uPOvn-14" vertex="1">
          <mxGeometry y="40" width="140" height="20" as="geometry" />
        </mxCell>
        <mxCell id="r4hVCq29wGwZ0H3uPOvn-40" value="" style="edgeStyle=orthogonalEdgeStyle;rounded=0;orthogonalLoop=1;jettySize=auto;html=1;" parent="1" source="r4hVCq29wGwZ0H3uPOvn-30" target="r4hVCq29wGwZ0H3uPOvn-39" edge="1">
          <mxGeometry relative="1" as="geometry">
            <Array as="points">
              <mxPoint x="80" y="640" />
              <mxPoint x="80" y="640" />
            </Array>
          </mxGeometry>
        </mxCell>
        <mxCell id="r4hVCq29wGwZ0H3uPOvn-30" value="User" style="rounded=0;whiteSpace=wrap;html=1;" parent="1" vertex="1">
          <mxGeometry x="80" y="10" width="120" height="60" as="geometry" />
        </mxCell>
        <mxCell id="r4hVCq29wGwZ0H3uPOvn-33" value="inserts" style="text;html=1;strokeColor=none;fillColor=none;align=center;verticalAlign=middle;whiteSpace=wrap;rounded=0;" parent="1" vertex="1">
          <mxGeometry x="120" y="450" width="60" height="30" as="geometry" />
        </mxCell>
        <mxCell id="r4hVCq29wGwZ0H3uPOvn-61" value="" style="edgeStyle=orthogonalEdgeStyle;rounded=0;orthogonalLoop=1;jettySize=auto;html=1;entryX=0;entryY=0.5;entryDx=0;entryDy=0;" parent="1" source="r4hVCq29wGwZ0H3uPOvn-39" target="r4hVCq29wGwZ0H3uPOvn-44" edge="1">
          <mxGeometry relative="1" as="geometry">
            <mxPoint x="530" y="660" as="targetPoint" />
          </mxGeometry>
        </mxCell>
        <mxCell id="r4hVCq29wGwZ0H3uPOvn-39" value="&lt;div&gt;Fuel Grades&lt;/div&gt;" style="rounded=0;whiteSpace=wrap;html=1;" parent="1" vertex="1">
          <mxGeometry x="40" y="650" width="120" height="60" as="geometry" />
        </mxCell>
        <mxCell id="r4hVCq29wGwZ0H3uPOvn-41" value="selects" style="text;html=1;align=center;verticalAlign=middle;resizable=0;points=[];autosize=1;strokeColor=none;fillColor=none;" parent="1" vertex="1">
          <mxGeometry x="90" y="610" width="60" height="30" as="geometry" />
        </mxCell>
        <mxCell id="r4hVCq29wGwZ0H3uPOvn-42" value="1" style="text;html=1;align=center;verticalAlign=middle;resizable=0;points=[];autosize=1;strokeColor=none;fillColor=none;" parent="1" vertex="1">
          <mxGeometry x="80" y="70" width="30" height="30" as="geometry" />
        </mxCell>
        <mxCell id="r4hVCq29wGwZ0H3uPOvn-43" value="*" style="text;html=1;align=center;verticalAlign=middle;resizable=0;points=[];autosize=1;strokeColor=none;fillColor=none;" parent="1" vertex="1">
          <mxGeometry x="80" y="630" width="30" height="30" as="geometry" />
        </mxCell>
        <mxCell id="r4hVCq29wGwZ0H3uPOvn-64" style="edgeStyle=orthogonalEdgeStyle;rounded=0;orthogonalLoop=1;jettySize=auto;html=1;entryX=0.5;entryY=0;entryDx=0;entryDy=0;" parent="1" source="r4hVCq29wGwZ0H3uPOvn-44" target="r4hVCq29wGwZ0H3uPOvn-50" edge="1">
          <mxGeometry relative="1" as="geometry">
            <Array as="points">
              <mxPoint x="305" y="740" />
              <mxPoint x="305" y="740" />
            </Array>
          </mxGeometry>
        </mxCell>
        <mxCell id="7SVlReUXrSAUbX2SOmzO-44" style="edgeStyle=orthogonalEdgeStyle;rounded=0;orthogonalLoop=1;jettySize=auto;html=1;" edge="1" parent="1" source="r4hVCq29wGwZ0H3uPOvn-44">
          <mxGeometry relative="1" as="geometry">
            <mxPoint x="629.9999999999998" y="679.9999999999998" as="targetPoint" />
          </mxGeometry>
        </mxCell>
        <mxCell id="r4hVCq29wGwZ0H3uPOvn-44" value="Pump Process" style="rounded=0;whiteSpace=wrap;html=1;" parent="1" vertex="1">
          <mxGeometry x="255" y="650" width="120" height="60" as="geometry" />
        </mxCell>
        <mxCell id="r4hVCq29wGwZ0H3uPOvn-47" value="1" style="text;html=1;align=center;verticalAlign=middle;resizable=0;points=[];autosize=1;strokeColor=none;fillColor=none;" parent="1" vertex="1">
          <mxGeometry x="270" y="710" width="30" height="30" as="geometry" />
        </mxCell>
        <mxCell id="r4hVCq29wGwZ0H3uPOvn-49" value="3" style="text;html=1;align=center;verticalAlign=middle;resizable=0;points=[];autosize=1;strokeColor=none;fillColor=none;" parent="1" vertex="1">
          <mxGeometry x="270" y="780" width="30" height="30" as="geometry" />
        </mxCell>
        <mxCell id="r4hVCq29wGwZ0H3uPOvn-50" value="Interface" style="swimlane;fontStyle=0;childLayout=stackLayout;horizontal=1;startSize=30;horizontalStack=0;resizeParent=1;resizeParentMax=0;resizeLast=0;collapsible=1;marginBottom=0;whiteSpace=wrap;html=1;" parent="1" vertex="1">
          <mxGeometry x="235" y="810" width="140" height="100" as="geometry" />
        </mxCell>
        <mxCell id="r4hVCq29wGwZ0H3uPOvn-51" value="Amount of fuel" style="text;strokeColor=none;fillColor=none;align=left;verticalAlign=middle;spacingLeft=4;spacingRight=4;overflow=hidden;points=[[0,0.5],[1,0.5]];portConstraint=eastwest;rotatable=0;whiteSpace=wrap;html=1;" parent="r4hVCq29wGwZ0H3uPOvn-50" vertex="1">
          <mxGeometry y="30" width="140" height="30" as="geometry" />
        </mxCell>
        <mxCell id="r4hVCq29wGwZ0H3uPOvn-52" value="Total&amp;nbsp; $ Amount" style="text;strokeColor=none;fillColor=none;align=left;verticalAlign=middle;spacingLeft=4;spacingRight=4;overflow=hidden;points=[[0,0.5],[1,0.5]];portConstraint=eastwest;rotatable=0;whiteSpace=wrap;html=1;" parent="r4hVCq29wGwZ0H3uPOvn-50" vertex="1">
          <mxGeometry y="60" width="140" height="20" as="geometry" />
        </mxCell>
        <mxCell id="r4hVCq29wGwZ0H3uPOvn-53" value="# of liters left" style="text;strokeColor=none;fillColor=none;align=left;verticalAlign=middle;spacingLeft=4;spacingRight=4;overflow=hidden;points=[[0,0.5],[1,0.5]];portConstraint=eastwest;rotatable=0;whiteSpace=wrap;html=1;" parent="r4hVCq29wGwZ0H3uPOvn-50" vertex="1">
          <mxGeometry y="80" width="140" height="20" as="geometry" />
        </mxCell>
        <mxCell id="r4hVCq29wGwZ0H3uPOvn-62" value="triggers" style="text;html=1;align=center;verticalAlign=middle;resizable=0;points=[];autosize=1;strokeColor=none;fillColor=none;" parent="1" vertex="1">
          <mxGeometry x="210" y="650" width="60" height="30" as="geometry" />
        </mxCell>
        <mxCell id="r4hVCq29wGwZ0H3uPOvn-65" value="displays" style="text;html=1;align=center;verticalAlign=middle;resizable=0;points=[];autosize=1;strokeColor=none;fillColor=none;" parent="1" vertex="1">
          <mxGeometry x="235" y="745" width="70" height="30" as="geometry" />
        </mxCell>
        <mxCell id="r4hVCq29wGwZ0H3uPOvn-72" value="Total" style="rounded=0;whiteSpace=wrap;html=1;" parent="1" vertex="1">
          <mxGeometry x="445" y="700" width="100" height="40" as="geometry" />
        </mxCell>
        <mxCell id="r4hVCq29wGwZ0H3uPOvn-74" value="&lt;div&gt;reaches&lt;/div&gt;" style="text;html=1;align=center;verticalAlign=middle;resizable=0;points=[];autosize=1;strokeColor=none;fillColor=none;" parent="1" vertex="1">
          <mxGeometry x="375" y="705" width="70" height="30" as="geometry" />
        </mxCell>
        <mxCell id="7SVlReUXrSAUbX2SOmzO-33" style="edgeStyle=orthogonalEdgeStyle;rounded=0;orthogonalLoop=1;jettySize=auto;html=1;entryX=0.842;entryY=1.031;entryDx=0;entryDy=0;entryPerimeter=0;exitX=0.75;exitY=0;exitDx=0;exitDy=0;" edge="1" parent="1" source="r4hVCq29wGwZ0H3uPOvn-75" target="7SVlReUXrSAUbX2SOmzO-4">
          <mxGeometry relative="1" as="geometry">
            <mxPoint x="235" y="90" as="targetPoint" />
            <mxPoint x="469.9999999999998" y="860" as="sourcePoint" />
            <Array as="points">
              <mxPoint x="830" y="560" />
              <mxPoint x="390" y="560" />
              <mxPoint x="390" y="90" />
              <mxPoint x="181" y="90" />
            </Array>
          </mxGeometry>
        </mxCell>
        <mxCell id="r4hVCq29wGwZ0H3uPOvn-77" value="&lt;div&gt;triggers&lt;/div&gt;&lt;div&gt;&lt;br&gt;&lt;/div&gt;" style="text;html=1;align=center;verticalAlign=middle;resizable=0;points=[];autosize=1;strokeColor=none;fillColor=none;" parent="1" vertex="1">
          <mxGeometry x="610" y="720" width="60" height="40" as="geometry" />
        </mxCell>
        <mxCell id="7SVlReUXrSAUbX2SOmzO-62" style="edgeStyle=orthogonalEdgeStyle;rounded=0;orthogonalLoop=1;jettySize=auto;html=1;entryX=0;entryY=0.5;entryDx=0;entryDy=0;" edge="1" parent="1" source="7SVlReUXrSAUbX2SOmzO-4" target="5Cbh1VTCBoVTc0HgQQdx-2">
          <mxGeometry relative="1" as="geometry" />
        </mxCell>
        <mxCell id="7SVlReUXrSAUbX2SOmzO-4" value="User" style="rounded=0;whiteSpace=wrap;html=1;" vertex="1" parent="1">
          <mxGeometry x="80" y="10" width="120" height="60" as="geometry" />
        </mxCell>
        <mxCell id="7SVlReUXrSAUbX2SOmzO-8" value="in" style="text;html=1;align=center;verticalAlign=middle;resizable=0;points=[];autosize=1;strokeColor=none;fillColor=none;" vertex="1" parent="1">
          <mxGeometry x="395" y="15" width="30" height="30" as="geometry" />
        </mxCell>
        <mxCell id="7SVlReUXrSAUbX2SOmzO-11" value="Verifies" style="text;whiteSpace=wrap;html=1;" vertex="1" parent="1">
          <mxGeometry x="632.5" y="230" width="70" height="40" as="geometry" />
        </mxCell>
        <mxCell id="7SVlReUXrSAUbX2SOmzO-12" style="edgeStyle=orthogonalEdgeStyle;rounded=0;orthogonalLoop=1;jettySize=auto;html=1;entryX=0.667;entryY=-0.017;entryDx=0;entryDy=0;entryPerimeter=0;" edge="1" parent="1" source="5Cbh1VTCBoVTc0HgQQdx-8" target="5Cbh1VTCBoVTc0HgQQdx-28">
          <mxGeometry relative="1" as="geometry">
            <Array as="points">
              <mxPoint x="652.5" y="121" />
            </Array>
          </mxGeometry>
        </mxCell>
        <mxCell id="7SVlReUXrSAUbX2SOmzO-19" value="verifies" style="text;html=1;align=center;verticalAlign=middle;resizable=0;points=[];autosize=1;strokeColor=none;fillColor=none;" vertex="1" parent="1">
          <mxGeometry x="762.5" y="290" width="60" height="30" as="geometry" />
        </mxCell>
        <mxCell id="7SVlReUXrSAUbX2SOmzO-20" style="edgeStyle=orthogonalEdgeStyle;rounded=0;orthogonalLoop=1;jettySize=auto;html=1;entryX=-0.021;entryY=0.1;entryDx=0;entryDy=0;entryPerimeter=0;" edge="1" parent="1" source="5Cbh1VTCBoVTc0HgQQdx-8" target="r4hVCq29wGwZ0H3uPOvn-16">
          <mxGeometry relative="1" as="geometry">
            <Array as="points">
              <mxPoint x="800" y="30" />
              <mxPoint x="800" y="144" />
            </Array>
          </mxGeometry>
        </mxCell>
        <mxCell id="7SVlReUXrSAUbX2SOmzO-21" value="&lt;div&gt;confirms&lt;/div&gt;" style="text;html=1;align=center;verticalAlign=middle;resizable=0;points=[];autosize=1;strokeColor=none;fillColor=none;" vertex="1" parent="1">
          <mxGeometry x="772.5" y="70" width="70" height="30" as="geometry" />
        </mxCell>
        <mxCell id="7SVlReUXrSAUbX2SOmzO-30" style="edgeStyle=orthogonalEdgeStyle;rounded=0;orthogonalLoop=1;jettySize=auto;html=1;entryX=0.592;entryY=0;entryDx=0;entryDy=0;entryPerimeter=0;" edge="1" parent="1" source="r4hVCq29wGwZ0H3uPOvn-44" target="r4hVCq29wGwZ0H3uPOvn-72">
          <mxGeometry relative="1" as="geometry">
            <Array as="points">
              <mxPoint x="480" y="700" />
              <mxPoint x="480" y="700" />
            </Array>
          </mxGeometry>
        </mxCell>
        <mxCell id="7SVlReUXrSAUbX2SOmzO-31" value="" style="edgeStyle=orthogonalEdgeStyle;rounded=0;orthogonalLoop=1;jettySize=auto;html=1;" edge="1" parent="1" target="r4hVCq29wGwZ0H3uPOvn-31">
          <mxGeometry relative="1" as="geometry">
            <Array as="points">
              <mxPoint x="100" y="420" />
              <mxPoint x="100" y="420" />
            </Array>
            <mxPoint x="100" y="53" as="sourcePoint" />
            <mxPoint x="324" y="569" as="targetPoint" />
          </mxGeometry>
        </mxCell>
        <mxCell id="r4hVCq29wGwZ0H3uPOvn-31" value="Nozzle" style="rounded=0;whiteSpace=wrap;html=1;" parent="1" vertex="1">
          <mxGeometry x="100" y="505" width="120" height="60" as="geometry" />
        </mxCell>
        <mxCell id="7SVlReUXrSAUbX2SOmzO-42" style="edgeStyle=orthogonalEdgeStyle;rounded=0;orthogonalLoop=1;jettySize=auto;html=1;entryX=0;entryY=1;entryDx=0;entryDy=0;" edge="1" parent="1" source="7SVlReUXrSAUbX2SOmzO-37" target="5Cbh1VTCBoVTc0HgQQdx-1">
          <mxGeometry relative="1" as="geometry">
            <Array as="points">
              <mxPoint x="420" y="170" />
              <mxPoint x="420" y="70" />
            </Array>
          </mxGeometry>
        </mxCell>
        <mxCell id="7SVlReUXrSAUbX2SOmzO-37" value="Nozzle" style="rounded=0;whiteSpace=wrap;html=1;" vertex="1" parent="1">
          <mxGeometry x="130" y="240" width="90" height="40" as="geometry" />
        </mxCell>
        <mxCell id="7SVlReUXrSAUbX2SOmzO-41" value="prints" style="text;html=1;align=center;verticalAlign=middle;resizable=0;points=[];autosize=1;strokeColor=none;fillColor=none;" vertex="1" parent="1">
          <mxGeometry x="445" y="132" width="50" height="30" as="geometry" />
        </mxCell>
        <mxCell id="7SVlReUXrSAUbX2SOmzO-43" value="triggers" style="text;html=1;align=center;verticalAlign=middle;resizable=0;points=[];autosize=1;strokeColor=none;fillColor=none;" vertex="1" parent="1">
          <mxGeometry x="245" y="170" width="60" height="30" as="geometry" />
        </mxCell>
        <mxCell id="7SVlReUXrSAUbX2SOmzO-55" style="edgeStyle=orthogonalEdgeStyle;rounded=0;orthogonalLoop=1;jettySize=auto;html=1;entryX=0.5;entryY=0;entryDx=0;entryDy=0;" edge="1" parent="1" source="7SVlReUXrSAUbX2SOmzO-45" target="r4hVCq29wGwZ0H3uPOvn-75">
          <mxGeometry relative="1" as="geometry">
            <Array as="points">
              <mxPoint x="800" y="680" />
            </Array>
          </mxGeometry>
        </mxCell>
        <mxCell id="7SVlReUXrSAUbX2SOmzO-45" value="Error" style="whiteSpace=wrap;html=1;" vertex="1" parent="1">
          <mxGeometry x="620" y="665" width="80" height="30" as="geometry" />
        </mxCell>
        <mxCell id="7SVlReUXrSAUbX2SOmzO-49" value="" style="edgeStyle=orthogonalEdgeStyle;rounded=0;orthogonalLoop=1;jettySize=auto;html=1;" edge="1" parent="1" source="5Cbh1VTCBoVTc0HgQQdx-1" target="7SVlReUXrSAUbX2SOmzO-40">
          <mxGeometry relative="1" as="geometry">
            <mxPoint x="499.9999999999998" y="190" as="targetPoint" />
            <mxPoint x="460" y="70" as="sourcePoint" />
            <Array as="points">
              <mxPoint x="465" y="90" />
              <mxPoint x="465" y="90" />
            </Array>
          </mxGeometry>
        </mxCell>
        <mxCell id="7SVlReUXrSAUbX2SOmzO-40" value="Receipt" style="whiteSpace=wrap;html=1;" vertex="1" parent="1">
          <mxGeometry x="425" y="162" width="80" height="30" as="geometry" />
        </mxCell>
        <mxCell id="7SVlReUXrSAUbX2SOmzO-50" style="edgeStyle=orthogonalEdgeStyle;rounded=0;orthogonalLoop=1;jettySize=auto;html=1;entryX=0.842;entryY=1.005;entryDx=0;entryDy=0;entryPerimeter=0;" edge="1" parent="1" source="7SVlReUXrSAUbX2SOmzO-45" target="5Cbh1VTCBoVTc0HgQQdx-1">
          <mxGeometry relative="1" as="geometry">
            <Array as="points">
              <mxPoint x="660" y="620" />
              <mxPoint x="541" y="620" />
            </Array>
          </mxGeometry>
        </mxCell>
        <mxCell id="7SVlReUXrSAUbX2SOmzO-6" value="inserts" style="text;html=1;align=center;verticalAlign=middle;resizable=0;points=[];autosize=1;strokeColor=none;fillColor=none;" vertex="1" parent="1">
          <mxGeometry x="200" y="10" width="60" height="30" as="geometry" />
        </mxCell>
        <mxCell id="7SVlReUXrSAUbX2SOmzO-57" value="" style="edgeStyle=orthogonalEdgeStyle;rounded=0;orthogonalLoop=1;jettySize=auto;html=1;entryX=0;entryY=0.5;entryDx=0;entryDy=0;" edge="1" parent="1" target="r4hVCq29wGwZ0H3uPOvn-75">
          <mxGeometry relative="1" as="geometry">
            <mxPoint x="549.9999999999998" y="722.5" as="sourcePoint" />
            <mxPoint x="925" y="717.5" as="targetPoint" />
            <Array as="points">
              <mxPoint x="740" y="723" />
            </Array>
          </mxGeometry>
        </mxCell>
        <mxCell id="r4hVCq29wGwZ0H3uPOvn-75" value="Halt" style="rounded=0;whiteSpace=wrap;html=1;" parent="1" vertex="1">
          <mxGeometry x="740" y="700" width="120" height="40" as="geometry" />
        </mxCell>
        <mxCell id="7SVlReUXrSAUbX2SOmzO-58" value="experiences" style="text;html=1;align=center;verticalAlign=middle;resizable=0;points=[];autosize=1;strokeColor=none;fillColor=none;" vertex="1" parent="1">
          <mxGeometry x="435" y="648" width="90" height="30" as="geometry" />
        </mxCell>
        <mxCell id="7SVlReUXrSAUbX2SOmzO-60" value="triggers" style="text;html=1;align=center;verticalAlign=middle;resizable=0;points=[];autosize=1;strokeColor=none;fillColor=none;" vertex="1" parent="1">
          <mxGeometry x="712.5" y="660" width="60" height="30" as="geometry" />
        </mxCell>
        <mxCell id="7SVlReUXrSAUbX2SOmzO-63" style="edgeStyle=orthogonalEdgeStyle;rounded=0;orthogonalLoop=1;jettySize=auto;html=1;entryX=0.1;entryY=0.058;entryDx=0;entryDy=0;entryPerimeter=0;" edge="1" parent="1" source="7SVlReUXrSAUbX2SOmzO-4" target="7SVlReUXrSAUbX2SOmzO-37">
          <mxGeometry relative="1" as="geometry" />
        </mxCell>
        <mxCell id="7SVlReUXrSAUbX2SOmzO-64" value="&lt;div&gt;returns&lt;/div&gt;" style="text;html=1;align=center;verticalAlign=middle;resizable=0;points=[];autosize=1;strokeColor=none;fillColor=none;" vertex="1" parent="1">
          <mxGeometry x="130" y="132" width="60" height="30" as="geometry" />
        </mxCell>
        <mxCell id="7SVlReUXrSAUbX2SOmzO-66" value="Refund" style="whiteSpace=wrap;html=1;" vertex="1" parent="1">
          <mxGeometry x="430" y="270" width="100" height="30" as="geometry" />
        </mxCell>
        <mxCell id="7SVlReUXrSAUbX2SOmzO-67" value="issue" style="text;html=1;align=center;verticalAlign=middle;resizable=0;points=[];autosize=1;strokeColor=none;fillColor=none;" vertex="1" parent="1">
          <mxGeometry x="470" y="235" width="50" height="30" as="geometry" />
        </mxCell>
      </root>
    </mxGraphModel>
  </diagram>
</mxfile>
